<?xml version="1.0" encoding="iso-8859-1"?>
<!-- Generator: Adobe Illustrator 19.0.0, SVG Export Plug-In . SVG Version: 6.00 Build 0)  -->
<svg version="1.1" id="Capa_1" xmlns="http://www.w3.org/2000/svg" xmlns:xlink="http://www.w3.org/1999/xlink" x="0px" y="0px"
	 viewBox="0 0 512 512" style="enable-background:new 0 0 512 512;" xml:space="preserve">
<path style="fill:#91CECE;" d="M17.655,0h476.69C504.099,0,512,7.901,512,17.655v476.69c0,9.754-7.901,17.655-17.655,17.655H17.655
	C7.901,512,0,504.099,0,494.345V17.655C0,7.901,7.901,0,17.655,0z"/>
<rect x="44.138" y="150.069" style="fill:#FFFFFF;" width="105.931" height="105.931"/>
<rect x="150.069" y="150.069" style="fill:#383856;" width="105.931" height="105.931"/>
<g>
	<rect x="150.069" y="256" style="fill:#FFFFFF;" width="105.931" height="105.931"/>
	<rect x="256" y="150.069" style="fill:#FFFFFF;" width="105.931" height="105.931"/>
</g>
<rect x="256" y="256" style="fill:#383856;" width="105.931" height="105.931"/>
<rect x="256" y="361.931" style="fill:#FFFFFF;" width="105.931" height="105.931"/>
<rect x="44.138" y="256" style="fill:#383856;" width="105.931" height="105.931"/>
<rect x="361.931" y="256" style="fill:#FFFFFF;" width="105.931" height="105.931"/>
<rect x="361.931" y="150.069" style="fill:#383856;" width="105.931" height="105.931"/>
<rect x="44.138" y="361.931" style="fill:#FFFFFF;" width="105.931" height="105.931"/>
<g>
	<rect x="150.069" y="361.931" style="fill:#383856;" width="105.931" height="105.931"/>
	<rect x="361.931" y="361.931" style="fill:#383856;" width="105.931" height="105.931"/>
	<rect x="256" y="44.138" style="fill:#383856;" width="105.931" height="105.931"/>
	<rect x="44.138" y="44.138" style="fill:#383856;" width="105.931" height="105.931"/>
</g>
<g>
	<rect x="150.069" y="44.138" style="fill:#FFFFFF;" width="105.931" height="105.931"/>
	<rect x="361.931" y="44.138" style="fill:#FFFFFF;" width="105.931" height="105.931"/>
</g>
<path style="fill:#83B2B7;" d="M467.862,192.044v275.818H44.138v-41.057C26.483,432.552,11.555,436.966,0,440.223v54.122
	C0,504.099,7.901,512,17.655,512h476.69c9.754,0,17.655-7.901,17.655-17.655V146.229
	C498.035,162.216,483.319,177.487,467.862,192.044z"/>
<path style="fill:#202033;" d="M256,361.931h105.931v-85.972C327.83,298.823,292.458,319.753,256,338.635V361.931z"/>
<g>
	<rect x="256" y="361.931" style="fill:#DDDDDD;" width="105.931" height="105.931"/>
	<path style="fill:#DDDDDD;" d="M361.931,275.959v85.972h105.931V256h-77.453C380.999,262.859,371.509,269.515,361.931,275.959z"/>
</g>
<path style="fill:#202033;" d="M467.862,256v-63.956c-24.444,22.925-50.317,44.288-77.453,63.956H467.862z"/>
<path style="fill:#DDDDDD;" d="M44.138,426.805v41.057h105.931v-80.066C109.7,404.471,73.269,417.377,44.138,426.805z"/>
<g>
	<path style="fill:#202033;" d="M208.781,361.931c-20.206,9.481-39.883,18.088-58.712,25.865v80.066H256V361.931H208.781z"/>
	<rect x="361.931" y="361.931" style="fill:#202033;" width="105.931" height="105.931"/>
</g>
<g>
	<circle style="fill:#EA3836;" cx="203.034" cy="97.103" r="26.483"/>
	<circle style="fill:#EA3836;" cx="414.897" cy="97.103" r="26.483"/>
	<circle style="fill:#EA3836;" cx="308.966" cy="97.103" r="26.483"/>
</g>
<g>
	<circle style="fill:#FFD33F;" cx="203.034" cy="414.897" r="26.483"/>
	<circle style="fill:#FFD33F;" cx="414.897" cy="414.897" r="26.483"/>
	<circle style="fill:#FFD33F;" cx="308.966" cy="414.897" r="26.483"/>
</g>
<path style="fill:#DDDDDD;" d="M208.781,361.931H256v-23.322C240.049,346.906,224.309,354.684,208.781,361.931z"/>
<path style="fill:#FFFFFF;" d="M390.409,256h-28.478v19.959C371.5,269.515,380.99,262.859,390.409,256z"/>
<circle style="fill:#FFD33F;" cx="97.103" cy="414.897" r="26.483"/>
<g>
	<path style="fill:#FFAC3E;" d="M110.822,392.351c2.56,4.122,3.919,8.872,3.937,13.718c0,14.627-11.855,26.483-26.483,26.483
		c-4.846-0.018-9.596-1.377-13.718-3.937c7.539,12.482,23.782,16.49,36.264,8.951s16.49-23.782,8.951-36.264
		C117.557,397.639,114.485,394.567,110.822,392.351z"/>
	<path style="fill:#FFAC3E;" d="M216.753,392.351c2.56,4.122,3.919,8.872,3.937,13.718c0,14.627-11.855,26.483-26.483,26.483
		c-4.846-0.018-9.596-1.377-13.718-3.937c7.539,12.482,23.782,16.49,36.264,8.951c12.482-7.539,16.49-23.782,8.951-36.264
		C223.488,397.639,220.416,394.567,216.753,392.351z"/>
	<path style="fill:#FFAC3E;" d="M322.684,392.351c2.56,4.122,3.919,8.872,3.937,13.718c0,14.627-11.855,26.483-26.483,26.483
		c-4.846-0.018-9.596-1.377-13.718-3.937c7.539,12.482,23.782,16.49,36.264,8.951s16.49-23.782,8.951-36.264
		C329.419,397.639,326.347,394.567,322.684,392.351z"/>
	<path style="fill:#FFAC3E;" d="M428.615,392.351c2.56,4.122,3.919,8.872,3.937,13.718c0,14.627-11.855,26.483-26.483,26.483
		c-4.846-0.018-9.596-1.377-13.718-3.937c7.539,12.482,23.782,16.49,36.264,8.951s16.49-23.782,8.951-36.264
		C435.35,397.639,432.278,394.567,428.615,392.351z"/>
</g>
<circle style="fill:#EA3836;" cx="97.103" cy="97.103" r="26.483"/>
<g>
	<path style="fill:#D62121;" d="M110.822,74.558c2.56,4.122,3.919,8.872,3.937,13.718c0,14.627-11.855,26.483-26.483,26.483
		c-4.846-0.018-9.596-1.377-13.718-3.937c7.539,12.482,23.782,16.49,36.264,8.951c12.482-7.539,16.49-23.782,8.951-36.264
		C117.557,79.846,114.485,76.774,110.822,74.558z"/>
	<path style="fill:#D62121;" d="M216.753,74.558c2.56,4.122,3.919,8.872,3.937,13.718c0,14.627-11.855,26.483-26.483,26.483
		c-4.846-0.018-9.596-1.377-13.718-3.937c7.539,12.482,23.782,16.49,36.264,8.951c12.482-7.539,16.49-23.782,8.951-36.264
		C223.488,79.846,220.416,76.774,216.753,74.558z"/>
	<path style="fill:#D62121;" d="M322.684,74.558c2.56,4.122,3.919,8.872,3.937,13.718c0,14.627-11.855,26.483-26.483,26.483
		c-4.846-0.018-9.596-1.377-13.718-3.937c7.539,12.482,23.782,16.49,36.264,8.951c12.482-7.539,16.49-23.782,8.951-36.264
		C329.419,79.846,326.347,76.774,322.684,74.558z"/>
	<path style="fill:#D62121;" d="M428.615,74.558c2.56,4.122,3.919,8.872,3.937,13.718c0,14.627-11.855,26.483-26.483,26.483
		c-4.846-0.018-9.596-1.377-13.718-3.937c7.539,12.482,23.782,16.49,36.264,8.951c12.482-7.539,16.49-23.782,8.951-36.264
		C435.35,79.846,432.278,76.774,428.615,74.558z"/>
</g>
<g>
</g>
<g>
</g>
<g>
</g>
<g>
</g>
<g>
</g>
<g>
</g>
<g>
</g>
<g>
</g>
<g>
</g>
<g>
</g>
<g>
</g>
<g>
</g>
<g>
</g>
<g>
</g>
<g>
</g>
</svg>
